# xmcd
#
# Track frame offsets:
#	150
#	15483
#	25622
#	39846
#	67411
#	86039
#	108237
#	126012
#	152635
#	162547
#	175029
#	190362
#	200501
#	214725
#	242290
#	260918
#	283116
#	300891
#	327514
#	337426
#
# Disc length: 4665 seconds
#
# Revision: 0
# Processed by: cddbd v1.5.2PL0 Copyright (c) Steve Scherf et al.
# Submitted via: audiograbber 1.83.01
#
DISCID=1f123714
DTITLE=Grupo de Louvo Igreja Presbiteriana em Abaira - O Nosso Humilde Louvor
DYEAR=2010
DGENRE=Gospel
TTITLE0=IPB Abaira - DEUS VAI FAZER
TTITLE1=IPB Abaira - BOM É ESTÁ
TTITLE2=IPB Abaira - EU TE BUSCO
TTITLE3=IPB Abaira - SONDA-ME, USA-ME
TTITLE4=IPB Abaira - VERDADEIRO ADORADOR
TTITLE5=IPB Abaira - CORAÇÃO IGUAL AO TEU
TTITLE6=IPB Abaira - EIS ME AQUI
TTITLE7=IPB Abaira - PRECISO DE TI
TTITLE8=IPB Abaira - O NOSSO GENERAL É CRISTO
TTITLE9=IPB Abaira - DEUS FORTE COMO JEOVÁ
TTITLE10=IPB Abaira - Play Back - DEUS VAI FAZER
TTITLE11=IPB Abaira - Play Back - BOM É ESTÁ
TTITLE12=IPB Abaira - Play Back - EU TE BUSCO
TTITLE13=IPB Abaira - Play Back - SONDA-ME, USA-ME
TTITLE14=IPB Abaira - Play Back - VERDADEIRO ADORADOR
TTITLE15=IPB Abaira - Play Back - CORAÇÃO IGUAL AO TEU
TTITLE16=IPB Abaira - Play Back - EIS ME AQUI
TTITLE17=IPB Abaira - Play Back - PRECISO DE TI
TTITLE18=IPB Abaira - Play Back - O NOSSO GENERAL É CRISTO
TTITLE19=IPB Abaira - Play Back - DEUS FORTE COMO JEOVÁ
EXTD=
EXTT0=Musica de Lázaro
EXTT1=Comunidade de Nilópolis
EXTT2=David Quinlan
EXTT3=Aline Barros
EXTT4=Alda Célia
EXTT5=Diante do Trono
EXTT6=Vineyard
EXTT7=Diante do Trono
EXTT8=autor desconhecido
EXTT9=autor desconhecido
EXTT10=
EXTT11=
EXTT12=
EXTT13=
EXTT14=
EXTT15=
EXTT16=
EXTT17=
EXTT18=
EXTT19=
PLAYORDER=
